Coordinates
version=1
nRows=7
nColumns=40
inDegrees=yes

Units are S.I. units (second, meters, Newtons, ...)
Angles are in degrees.

endheader
time	pelvis_tilt	pelvis_list	pelvis_rotation	pelvis_tx	pelvis_ty	pelvis_tz	hip_flexion_r	hip_adduction_r	hip_rotation_r	knee_angle_r	knee_angle_r_beta	ankle_angle_r	subtalar_angle_r	mtp_angle_r	hip_flexion_l	hip_adduction_l	hip_rotation_l	knee_angle_l	knee_angle_l_beta	ankle_angle_l	subtalar_angle_l	mtp_angle_l	lumbar_extension	lumbar_bending	lumbar_rotation	arm_flex_r	arm_add_r	arm_rot_r	elbow_flex_r	pro_sup_r	wrist_flex_r	wrist_dev_r	arm_flex_l	arm_add_l	arm_rot_l	elbow_flex_l	pro_sup_l	wrist_flex_l	wrist_dev_l
      3.39999967	      8.61264233	     -1.40150896	     -0.75905201	      0.93229929	      1.10183768	     -0.45495023	     -0.59042796	      3.39922812	     -4.96202148	     23.62073266	     23.62073266	     12.16659934	      0.00000000	      0.00000000	      8.94572964	     -4.86530371	      1.06417423	     69.65724902	     69.65724902	      1.64284768	      0.00000000	      0.00000000	    -20.54564891	     -0.00512101	     -0.31787278	     -6.73507685	    -16.05392453	     -6.22626320	     46.72240750	     53.89483410	      0.00000000	      0.00000000	     -0.53523284	    -12.41635822	      9.14441319	     32.45471045	     58.42321094	      0.00000000	      0.00000000
      3.40833300	      8.66769689	     -1.49956429	     -0.92807437	      0.93125379	      1.10311643	     -0.45429281	     -1.58778695	      3.54967618	     -4.84034645	     22.77211294	     22.77211294	     11.90497536	      0.00000000	      0.00000000	      9.96160607	     -5.13615944	      0.72848991	     68.90102148	     68.90102148	      2.54690306	      0.00000000	      0.00000000	    -20.77057935	     -0.05464598	      0.43659285	     -6.81407371	    -16.22276925	     -7.01308846	     48.13399500	     54.09199074	      0.00000000	      0.00000000	     -0.56708398	    -12.30309423	      9.03752503	     32.14714668	     58.21741024	      0.00000000	      0.00000000
      3.41666633	      8.48490189	     -1.33063385	     -1.05338088	      0.93043958	      1.10383763	     -0.45374530	     -2.21558555	      3.38002138	     -4.84320424	     22.25067324	     22.25067324	     11.98858797	      0.00000000	      0.00000000	     11.19292607	     -5.06985758	      0.45236841	     67.95407132	     67.95407132	      3.24753440	      0.00000000	      0.00000000	    -20.62417033	     -0.39539334	      0.81005048	     -6.67521127	    -16.43493801	     -7.04739510	     49.01723767	     54.16115014	      0.00000000	      0.00000000	     -0.90328920	    -12.33244674	      8.97578836	     32.03025053	     58.13896504	      0.00000000	      0.00000000
      3.42499967	      8.33964627	     -1.27576223	     -1.15441899	      0.92977868	      1.10444013	     -0.45337292	     -2.81714159	      3.32179187	     -4.80603116	     21.94010217	     21.94010217	     12.10667505	      0.00000000	      0.00000000	     12.29918201	     -5.11859375	      0.22092434	     66.76102742	     66.76102742	      3.74723668	      0.00000000	      0.00000000	    -20.47286987	     -0.57960397	      1.14416162	     -6.50793663	    -16.66779812	     -7.07904569	     49.77359573	     54.20037399	      0.00000000	      0.00000000	     -1.31943099	    -12.32331294	      8.92461543	     31.94725097	     58.08514283	      0.00000000	      0.00000000
      3.43333300	      8.51497435	     -1.14083787	     -1.41192730	      0.92889681	      1.10535637	     -0.45289301	     -4.00562261	      3.23043786	     -4.09231225	     20.96561079	     20.96561079	     12.03892062	      0.00000000	      0.00000000	     12.98492856	     -5.12476194	     -0.27185177	     65.45953521	     65.45953521	      4.38407679	      0.00000000	      0.00000000	    -20.81354714	     -0.88185909	      1.80272822	     -6.63436858	    -16.91861932	     -7.47628673	     51.33581755	     54.37235619	      0.00000000	      0.00000000	     -1.48005246	    -12.25822228	      8.67572786	     31.94663339	     57.84420955	      0.00000000	      0.00000000
      3.44166633	      8.49243312	     -0.99564401	     -1.58876144	      0.92804487	      1.10584101	     -0.45257116	     -4.83921793	      3.08173959	     -3.77380384	     20.36521716	     20.36521716	     12.12307668	      0.00000000	      0.00000000	     13.85162960	     -5.07350501	     -0.62213006	     63.96534883	     63.96534883	      4.66131924	      0.00000000	      0.00000000	    -20.87460167	     -1.16308500	      2.22352466	     -6.53359449	    -17.15999915	     -7.63811678	     52.34366485	     54.56599597	      0.00000000	      0.00000000	     -1.71133373	    -12.23445800	      8.52078713	     31.77851209	     57.63188687	      0.00000000	      0.00000000
      3.44999967	      8.25784428	     -0.94457827	     -1.70207496	      0.92706118	      1.10584225	     -0.45237655	     -5.32461854	      3.01208405	     -3.75869960	     20.02475396	     20.02475396	     12.30327620	      0.00000000	      0.00000000	     14.95262250	     -5.09801695	     -0.82799806	     62.39442980	     62.39442980	      4.85180834	      0.00000000	      0.00000000	    -20.69197699	     -1.30605534	      2.51752715	     -6.29962121	    -17.41661911	     -7.62651871	     53.07528248	     54.62975182	      0.00000000	      0.00000000	     -1.98372466	    -12.23069528	      8.38866350	     31.57782200	     57.55287132	      0.00000000	      0.00000000
